#!OML:ASF F:\VICON\USERDATA\INSTALL\rory3\rory3.ASF
:FULLY-SPECIFIED
:DEGREES
2003
root -0.0439173 19.4295 -2.01363 0.247598 -7.29356 1.82839
lowerback 10.2531 0.929928 -1.88209
upperback 2.27876 0.946722 -2.06721
thorax -3.37015 0.476944 -1.20884
lowerneck -14.7233 -6.64711 -9.0475
upperneck 4.86464 -8.24203 11.1812
head 4.70408 -3.6091 4.22652
rclavicle -4.57205e-015 -1.11319e-014
rhumerus -13.9759 17.4582 -82.1694
rradius 121.911
rwrist -3.82125
rhand -42.4463 7.58082
rfingers 7.12502
rthumb -15.325 -21.8313
lclavicle -4.57205e-015 -1.11319e-014
lhumerus -54.3393 -0.7987 89.9471
lradius 95.9985
lwrist 13.5663
lhand -35.9796 9.65192
lfingers 7.12502
lthumb -9.09014 39.436
rfemur -19.7689 11.456 13.7121
rtibia 44.4153
rfoot 3.44161 -2.35762
rtoes -14.8919
lfemur -21.5659 9.45602 -17.7991
ltibia 58.3847
lfoot 0.120638 3.99007
ltoes -12.772
2004
root -0.00272603 19.4657 -2.02964 0.235212 -7.63821 2.07128
lowerback 11.8107 1.02876 -2.6317
upperback 1.42432 0.918995 -1.79895
thorax -5.14288 0.485798 -0.546556
lowerneck -14.4098 -6.5242 -9.28505
upperneck 5.25016 -8.0401 10.7522
head 4.73859 -3.54405 4.15469
rclavicle -3.40419e-014 -2.38542e-014
rhumerus -16.048 17.6211 -82.4968
rradius 121.908
rwrist -3.47121
rhand -42.5933 6.68112
rfingers 7.12502
rthumb -15.4666 -22.7202
lclavicle -3.40419e-014 -2.38542e-014
lhumerus -55.1937 -1.28046 90.7051
lradius 96.5511
lwrist 13.993
lhand -35.6112 9.73359
lfingers 7.12502
lthumb -8.7346 39.5329
rfemur -20.9121 11.4156 13.0777
rtibia 45.4792
rfoot 4.95275 -2.17307
rtoes -13.0094
lfemur -21.0761 8.78371 -18.3474
ltibia 56.8147
lfoot 0.513009 3.34035
ltoes -16.9828
2005
root 0.0401226 19.4939 -2.026 0.207577 -8.31906 1.72123
lowerback 11.8354 1.09216 -2.46244
upperback 1.54867 1.03631 -1.62443
thorax -5.02717 0.540184 -0.476415
lowerneck -14.5812 -6.39797 -9.26769
upperneck 5.03563 -7.82478 10.5852
head 4.6695 -3.44527 4.11914
rclavicle 1.88348e-014 4.37326e-015
rhumerus -16.7013 17.6345 -82.7745
rradius 121.623
rwrist -3.1603
rhand -42.7795 5.92917
rfingers 7.12502
rthumb -15.646 -23.4582
lclavicle 1.88348e-014 4.37326e-015
lhumerus -54.5747 -1.95735 91.0818
lradius 97.0707
lwrist 14.7116
lhand -35.3834 10.1715
lfingers 7.12502
lthumb -8.51481 39.9798
rfemur -21.9309 11.7416 13.1651
rtibia 46.6879
rfoot 5.60109 -2.39404
rtoes -12.1516
lfemur -20.3881 8.42244 -18.174
ltibia 55.2798
lfoot 1.31828 2.71669
ltoes -14.0497
2006
root 0.0817199 19.5068 -2.0358 0.238235 -8.53424 1.41278
lowerback 11.8683 1.00688 -2.26955
upperback 1.69676 0.95709 -1.49796
thorax -4.88791 0.497035 -0.438345
lowerneck -14.6557 -6.24934 -9.21551
upperneck 4.67052 -7.59476 10.5248
head 4.54145 -3.337 4.11588
rclavicle -6.95746e-015 1.98785e-015
rhumerus -17.3296 17.5944 -83.0955
rradius 121.32
rwrist -2.97906
rhand -42.4052 6.5605
rfingers 7.12502
rthumb -15.2855 -22.8547
lclavicle -6.95746e-015 1.98785e-015
lhumerus -53.749 -2.71171 91.3508
lradius 97.6314
lwrist 15.6046
lhand -34.8974 10.3675
lfingers 7.12502
lthumb -8.04575 40.1943
rfemur -22.9617 11.6345 13.2412
rtibia 48.1302
rfoot 5.53836 -3.27906
rtoes -12.6102
lfemur -19.8874 7.54123 -18.0518
ltibia 53.8206
lfoot 2.3759 2.30151
ltoes -12.0481
2007
root 0.126726 19.5071 -2.03527 0.0263344 -8.82423 1.46566
lowerback 11.996 0.94624 -2.39879
upperback 1.85187 0.860382 -1.46566
thorax -4.79719 0.450208 -0.316502
lowerneck -14.6567 -6.06969 -9.11523
upperneck 4.38035 -7.33208 10.3407
head 4.41432 -3.21973 4.06977
rclavicle -4.02539e-014 1.27222e-014
rhumerus -18.1537 17.5918 -83.4817
rradius 120.853
rwrist -3.01754
rhand -42.1137 7.7974
rfingers 7.12502
rthumb -15.0047 -21.639
lclavicle -4.02539e-014 1.27222e-014
lhumerus -52.8415 -3.37417 91.6323
lradius 98.0573
lwrist 16.3039
lhand -34.422 10.283
lfingers 7.12502
lthumb -7.58691 40.1269
rfemur -23.8183 11.4195 12.9454
rtibia 49.766
rfoot 5.15703 -4.59254
rtoes -11.186
lfemur -19.0523 6.76478 -18.325
ltibia 52.3288
lfoot 2.61932 1.95482
ltoes -12.0425
2008
root 0.166645 19.492 -2.0512 -0.0970675 -8.7386 1.49717
lowerback 12.3797 0.779527 -2.58317
upperback 1.8313 0.603957 -1.3977
thorax -5.03041 0.329255 -0.105841
lowerneck -14.5932 -5.92541 -9.04914
upperneck 4.32054 -7.13417 10.1661
head 4.35623 -3.13349 4.02523
rclavicle -2.25621e-014 2.34566e-014
rhumerus -19.2649 17.6003 -83.9339
rradius 120.152
rwrist -2.96787
rhand -42.2727 8.67665
rfingers 7.12502
rthumb -15.1578 -20.7482
lclavicle -2.25621e-014 2.34566e-014
lhumerus -52.0818 -4.21803 91.9841
lradius 98.6053
lwrist 16.8967
lhand -34.2953 10.4912
lfingers 7.12502
lthumb -7.46463 40.3395
rfemur -24.863 10.8267 12.696
rtibia 51.6175
rfoot 4.50697 -6.17139
rtoes -8.37035
lfemur -18.4523 5.82536 -18.5465
ltibia 50.8683
lfoot 2.82761 1.6443
ltoes -12.7088
2009
root 0.208166 19.4698 -2.05732 -0.360488 -8.89371 1.39436
lowerback 12.7707 0.699365 -2.61761
upperback 1.86726 0.483359 -1.31284
thorax -5.2077 0.272207 0.0184745
lowerneck -14.1973 -5.78519 -9.02387
upperneck 3.98447 -6.95293 10.1058
head 4.16919 -3.06182 4.02885
rclavicle -3.17559e-014 -1.78906e-014
rhumerus -20.3017 17.6735 -84.3236
rradius 119.457
rwrist -2.97771
rhand -42.535 9.13468
rfingers 7.12502
rthumb -15.4105 -20.2709
lclavicle -3.17559e-014 -1.78906e-014
lhumerus -51.3057 -5.10623 92.3101
lradius 99.2218
lwrist 17.4958
lhand -34.0723 9.98919
lfingers 7.12502
lthumb -7.24934 39.845
rfemur -25.7579 10.4242 12.6252
rtibia 53.5511
rfoot 3.59186 -7.76073
rtoes -6.47007
lfemur -17.5701 5.09426 -18.5976
ltibia 49.3991
lfoot 3.52349 1.45984
ltoes -12.908
2010
root 0.252331 19.4371 -2.05751 -0.699328 -9.00719 1.46716
lowerback 13.0024 0.605246 -2.71546
upperback 2.00712 0.337916 -1.33479
thorax -5.1858 0.200903 0.0744869
lowerneck -13.8986 -5.62577 -8.99645
upperneck 3.67442 -6.74932 10.141
head 4.00813 -2.97089 4.06166
rclavicle -1.01877e-014 7.55382e-015
rhumerus -21.0854 17.7585 -84.6857
rradius 118.8
rwrist -3.21094
rhand -42.5408 8.87519
rfingers 7.12502
rthumb -15.4161 -20.53
lclavicle -1.01877e-014 7.55382e-015
lhumerus -50.2067 -6.0041 92.5103
lradius 99.5126
lwrist 18.0294
lhand -33.6621 9.17604
lfingers 7.12502
lthumb -6.85339 39.0451
rfemur -26.5563 9.89018 12.3448
rtibia 55.5392
rfoot 2.63261 -9.11509
rtoes -5.19942
lfemur -16.5849 4.28411 -18.8509
ltibia 47.9569
lfoot 4.11326 1.42468
ltoes -12.1454
